<svg width="25" height="24" viewBox="0 0 25 24" fill="none" xmlns="http://www.w3.org/2000/svg">
<path fill-rule="evenodd" clip-rule="evenodd" d="M9.18945 10.5201V14.5201C9.18945 15.4451 9.72345 16.3421 10.7395 17.0351C11.9475 17.8591 13.8905 18.4201 16.0895 18.4201C18.2885 18.4201 20.2315 17.8591 21.4395 17.0351C22.4555 16.3421 22.9895 15.4451 22.9895 14.5201V10.5201C22.9895 10.0231 22.5865 9.62012 22.0895 9.62012C21.5925 9.62012 21.1895 10.0231 21.1895 10.5201V14.5201C21.1895 14.9211 20.8655 15.2481 20.4245 15.5481C19.4485 16.2141 17.8665 16.6201 16.0895 16.6201C14.3125 16.6201 12.7305 16.2141 11.7545 15.5481C11.3135 15.2481 10.9895 14.9211 10.9895 14.5201V10.5201C10.9895 10.0231 10.5865 9.62012 10.0895 9.62012C9.59245 9.62012 9.18945 10.0231 9.18945 10.5201Z" fill="white" fill-opacity="0.87"/>
<path fill-rule="evenodd" clip-rule="evenodd" d="M9.18945 14.5201V18.5201C9.18945 19.4451 9.72345 20.3421 10.7395 21.0351C11.9475 21.8591 13.8905 22.4201 16.0895 22.4201C18.2885 22.4201 20.2315 21.8591 21.4395 21.0351C22.4555 20.3421 22.9895 19.4451 22.9895 18.5201V14.5201C22.9895 14.0231 22.5865 13.6201 22.0895 13.6201C21.5925 13.6201 21.1895 14.0231 21.1895 14.5201V18.5201C21.1895 18.9211 20.8655 19.2481 20.4245 19.5481C19.4485 20.2141 17.8665 20.6201 16.0895 20.6201C14.3125 20.6201 12.7305 20.2141 11.7545 19.5481C11.3135 19.2481 10.9895 18.9211 10.9895 18.5201V14.5201C10.9895 14.0231 10.5865 13.6201 10.0895 13.6201C9.59245 13.6201 9.18945 14.0231 9.18945 14.5201Z" fill="white" fill-opacity="0.87"/>
<path fill-rule="evenodd" clip-rule="evenodd" d="M16.0895 6.62012C13.8915 6.62012 11.9485 7.18112 10.7405 8.00512C9.72445 8.69812 9.18945 9.59512 9.18945 10.5201C9.18945 11.4451 9.72445 12.3421 10.7405 13.0351C11.9485 13.8591 13.8915 14.4201 16.0895 14.4201C18.2875 14.4201 20.2305 13.8591 21.4385 13.0351C22.4545 12.3421 22.9895 11.4451 22.9895 10.5201C22.9895 9.59512 22.4545 8.69812 21.4385 8.00512C20.2305 7.18112 18.2875 6.62012 16.0895 6.62012ZM16.0895 8.42012C17.8655 8.42012 19.4475 8.82712 20.4245 9.49212C20.8655 9.79312 21.1895 10.1191 21.1895 10.5201C21.1895 10.9211 20.8655 11.2471 20.4245 11.5481C19.4475 12.2131 17.8655 12.6201 16.0895 12.6201C14.3135 12.6201 12.7315 12.2131 11.7545 11.5481C11.3135 11.2471 10.9895 10.9211 10.9895 10.5201C10.9895 10.1191 11.3135 9.79312 11.7545 9.49212C12.7315 8.82712 14.3135 8.42012 16.0895 8.42012Z" fill="white" fill-opacity="0.87"/>
<path fill-rule="evenodd" clip-rule="evenodd" d="M1.18945 5.0001V9.0001C1.18945 9.7561 1.53845 10.4841 2.21645 11.1031C3.01745 11.8351 4.32545 12.4291 5.91645 12.7131C6.40545 12.8001 6.87245 12.4741 6.96045 11.9851C7.04745 11.4951 6.72045 11.0281 6.23145 10.9411C5.21745 10.7601 4.34245 10.4381 3.72545 10.0081C3.30045 9.7131 2.98945 9.3921 2.98945 9.0001V5.0001C2.98945 4.5031 2.58645 4.1001 2.08945 4.1001C1.59245 4.1001 1.18945 4.5031 1.18945 5.0001Z" fill="white" fill-opacity="0.87"/>
<path fill-rule="evenodd" clip-rule="evenodd" d="M1.18945 9.0001V13.0001C1.18945 13.8451 1.63045 14.6621 2.47945 15.3251C3.48245 16.1091 5.10945 16.6961 7.01845 16.8561C7.51345 16.8971 7.94845 16.5291 7.98945 16.0341C8.03145 15.5391 7.66345 15.1031 7.16845 15.0621C5.66845 14.9371 4.37545 14.5221 3.58645 13.9061C3.24045 13.6361 2.98945 13.3451 2.98945 13.0001V9.0001C2.98945 8.5031 2.58645 8.1001 2.08945 8.1001C1.59245 8.1001 1.18945 8.5031 1.18945 9.0001ZM7.15645 7.0611C5.66145 6.9341 4.37145 6.5191 3.58545 5.9041C3.23945 5.6341 2.98945 5.3441 2.98945 5.0001C2.98945 4.5991 3.31345 4.2731 3.75445 3.9721C4.73145 3.3071 6.31345 2.9001 8.08945 2.9001C9.86545 2.9001 11.4475 3.3071 12.4245 3.9721C12.8655 4.2731 13.1895 4.5991 13.1895 5.0001C13.1895 5.4971 13.5925 5.9001 14.0895 5.9001C14.5865 5.9001 14.9895 5.4971 14.9895 5.0001C14.9895 4.0751 14.4545 3.1781 13.4385 2.4851C12.2305 1.6611 10.2875 1.1001 8.08945 1.1001C5.89145 1.1001 3.94845 1.6611 2.74045 2.4851C1.72445 3.1781 1.18945 4.0751 1.18945 5.0001C1.18945 5.8441 1.62945 6.6601 2.47645 7.3221C3.47745 8.1051 5.10145 8.6931 7.00445 8.8541C7.49945 8.8961 7.93545 8.5291 7.97745 8.0341C8.01945 7.5391 7.65145 7.1031 7.15645 7.0611Z" fill="white" fill-opacity="0.87"/>
</svg>
