<svg width="25" height="26" viewBox="0 0 25 26" fill="none" xmlns="http://www.w3.org/2000/svg">
<path d="M19.4 12.9998C19.4 13.6634 19.3424 14.1998 18.6788 14.1998H13.4V19.4786C13.4 20.141 12.8636 20.1998 12.2 20.1998C11.5364 20.1998 11 20.141 11 19.4786V14.1998H5.7212C5.0588 14.1998 5 13.6634 5 12.9998C5 12.3362 5.0588 11.7998 5.7212 11.7998H11V6.521C11 5.8574 11.5364 5.7998 12.2 5.7998C12.8636 5.7998 13.4 5.8574 13.4 6.521V11.7998H18.6788C19.3424 11.7998 19.4 12.3362 19.4 12.9998Z" fill="#7B61FF"/>
</svg>
